<svg width="171" height="52" viewBox="0 0 171 52" fill="none" xmlns="http://www.w3.org/2000/svg">
<path d="M105.66 40.2317C95.7638 47.4965 81.383 51.4054 69.0531 51.4054C51.7284 51.4054 36.1357 45.026 24.321 34.366C23.3887 33.5294 24.2278 32.4091 25.3464 33.0647C38.0934 40.4665 53.8284 44.889 70.1227 44.889C81.0935 44.889 93.1438 42.6093 104.252 37.9079C105.886 37.2083 107.333 39.0233 105.65 40.2366" fill="#333333"/>
<path d="M109.815 35.5304C108.554 33.9013 101.46 34.7868 98.236 35.1586C97.2547 35.3005 97.1173 34.415 98.0005 33.8084C103.648 29.8506 112.941 30.9709 114.015 32.3162C115.09 33.6665 113.735 42.9322 108.412 47.3547C107.617 48.0543 106.822 47.6825 107.2 46.7481C108.368 43.8128 111.076 37.1595 109.815 35.5304Z" fill="#333333"/>
<path d="M98.4722 5.7811V1.9163C98.4722 1.30967 98.9384 0.937866 99.4535 0.937866H116.778C117.338 0.937866 117.76 1.35859 117.76 1.9163V5.22339C117.76 5.7811 117.293 6.48068 116.454 7.64501L107.49 20.4478C110.807 20.3548 114.354 20.8685 117.387 22.5416C118.088 22.9134 118.275 23.4711 118.319 24.0337V28.1285C118.319 28.6862 117.71 29.3368 117.058 29.0139C111.734 26.2205 104.64 25.9417 98.7568 29.0629C98.1484 29.3906 97.5449 28.7351 97.5449 28.1774V24.2686C97.5449 23.6179 97.5449 22.5465 98.1975 21.617L108.609 6.72039H99.5517C98.8991 6.76931 98.4772 6.39262 98.4772 5.79088" fill="#333333"/>
<path d="M35.2047 29.8947H29.9303C29.4151 29.8458 29.0422 29.474 28.998 29.0092V2.0094C28.998 1.4517 29.4642 1.03097 30.0235 1.03097H34.925C35.4402 1.03097 35.8573 1.4517 35.8573 1.91645V5.45348H35.9505C37.2114 2.05343 39.6401 0.473267 42.9078 0.473267C46.1755 0.473267 48.2755 2.05832 49.772 5.45348C51.0329 2.05343 53.9277 0.473267 57.0581 0.473267C59.2512 0.473267 61.6799 1.40278 63.1764 3.40856C64.8593 5.6883 64.4815 8.9954 64.4815 11.8818V28.9211C64.4815 29.4789 64.0154 29.8996 63.4561 29.8996H58.1816C57.6665 29.8507 57.2494 29.4348 57.2494 28.9211V14.6312C57.2494 13.5157 57.3426 10.6734 57.1071 9.558C56.7342 7.74301 55.5174 7.22933 54.0259 7.22933C52.7649 7.22933 51.4107 8.06589 50.8514 9.46505C50.2921 10.8153 50.3853 13.095 50.3853 14.6312V28.9211C50.3853 29.4789 49.9192 29.8996 49.3598 29.8996H44.0854C43.5702 29.8507 43.1532 29.4348 43.1532 28.9211V14.6312C43.1532 11.6029 43.6683 7.18041 39.8855 7.18041C36.1026 7.18041 36.2449 11.51 36.2449 14.6312V28.9211C36.2449 29.4348 35.7788 29.8996 35.2194 29.8996" fill="#333333"/>
<path d="M132.745 5.9669C128.869 5.9669 128.638 11.226 128.638 14.5331C128.638 17.8402 128.589 24.8702 132.745 24.8702C136.901 24.8702 137.038 19.1904 137.038 15.7463C137.038 13.4666 136.945 10.7661 136.243 8.57931C135.591 6.7154 134.423 5.97179 132.74 5.97179L132.745 5.9669ZM132.691 0.477905C140.536 0.477905 144.736 7.18016 144.736 15.7023C144.736 24.2244 140.065 30.4619 132.691 30.4619C125.317 30.4619 120.832 23.7597 120.832 15.4234C120.832 7.08721 125.081 0.477905 132.691 0.477905Z" fill="#333333"/>
<path d="M154.92 29.8947H149.69C149.175 29.8458 148.758 29.4299 148.758 28.9163V1.91645C148.807 1.40278 149.224 1.03097 149.783 1.03097H154.685C155.151 1.03097 155.524 1.35875 155.617 1.77458V5.91824H155.71C157.202 2.23933 159.258 0.473267 162.898 0.473267C165.278 0.473267 167.569 1.30983 169.061 3.63849C170.459 5.78126 170.459 9.41123 170.459 12.0188V29.0092C170.41 29.474 169.944 29.8458 169.434 29.8458H164.066C163.6 29.8017 163.178 29.474 163.134 29.0092V14.3425C163.134 11.4072 163.462 7.07768 159.817 7.07768C158.556 7.07768 157.344 7.91423 156.78 9.22044C156.034 10.8495 155.941 12.5275 155.941 14.3425V28.8673C155.941 29.425 155.475 29.8898 154.915 29.8898" fill="#333333"/>
<path d="M83.6688 22.5417C82.8298 24.0338 81.4756 24.9144 80.0282 24.9144C78.0215 24.9144 76.8047 23.3783 76.8047 21.0985C76.8047 16.6271 80.8182 15.7905 84.6501 15.7905V16.9059C84.6501 19.0487 84.6992 20.7218 83.6688 22.5368V22.5417ZM94.0362 24.9144C93.0549 23.5642 92.0294 22.4928 92.0294 20.0271V11.8328C92.0294 8.33977 92.2649 5.17455 89.6939 2.80185C87.6872 0.844992 84.3263 0.194336 81.7553 0.194336C76.7605 0.194336 71.1083 2.05825 69.9406 8.24682C69.7983 8.89748 70.3135 9.26928 70.7354 9.36223L75.8234 9.91994C76.2895 9.91994 76.6624 9.45518 76.7556 8.94151C77.1776 6.79875 78.9979 5.77628 81.0046 5.77628C82.0791 5.77628 83.3401 6.19701 83.9485 7.12652C84.6943 8.1979 84.601 9.68512 84.601 10.9424V11.642C81.564 11.9698 77.5505 12.1997 74.7047 13.457C71.388 14.9002 69.1016 17.7865 69.1016 22.0721C69.1016 27.517 72.5557 30.2664 76.9911 30.2664C80.725 30.2664 82.7808 29.3809 85.6756 26.4505C86.6078 27.8448 86.9365 28.5003 88.7127 29.9435C89.0855 30.1294 89.6007 30.1294 89.9736 29.8065C91.0481 28.877 92.9616 27.199 94.0362 26.3135C94.4581 25.9858 94.3649 25.384 94.0362 24.9144Z" fill="#333333"/>
<path d="M14.5231 22.5417C13.6841 24.0338 12.3741 24.9144 10.8825 24.9144C8.87577 24.9144 7.65897 23.3783 7.65897 21.0985C7.65897 16.6271 11.6725 15.7905 15.5044 15.7905V16.9059C15.5044 19.0487 15.5535 20.7218 14.5231 22.5368V22.5417ZM24.8904 24.9144C23.9091 23.5642 22.8837 22.4928 22.8837 20.0271V11.8328C22.8837 8.33977 23.1192 5.17455 20.5482 2.80185C18.5415 0.844992 15.1806 0.194336 12.6096 0.194336C7.61482 0.194336 2.01165 2.05825 0.794845 8.24682C0.652558 8.89748 1.16774 9.26928 1.58969 9.36223L6.72675 9.91994C7.19286 9.91994 7.56575 9.45518 7.65897 8.94151C8.08093 6.79875 9.90122 5.77628 11.908 5.77628C12.9825 5.77628 14.2434 6.19701 14.8518 7.12652C15.5976 8.1979 15.5044 9.68512 15.5044 10.9424V11.642C12.4673 11.9698 8.45382 12.1997 5.60808 13.457C2.28641 14.905 0 17.7914 0 22.0721C0 27.517 3.45414 30.2664 7.88958 30.2664C11.6234 30.2664 13.6792 29.3809 16.574 26.4505C17.5553 27.8448 17.835 28.5003 19.6111 29.9435C19.984 30.1294 20.4992 30.1294 20.8721 29.8065C21.9466 28.877 23.8601 27.199 24.9346 26.3135C25.3075 25.9858 25.2143 25.384 24.8855 24.9144H24.8904Z" fill="#333333"/>
</svg>
