<svg width="171" height="77" viewBox="0 0 171 77" fill="none" xmlns="http://www.w3.org/2000/svg">
<path d="M26.3964 30.9208C27.0931 29.4825 26.9508 27.9806 26.0774 27.5599C25.2041 27.1392 23.9333 27.961 23.2366 29.3993C22.5399 30.8327 22.6822 32.3395 23.5555 32.7602C24.4289 33.181 25.6996 32.3591 26.3964 30.9208ZM32.6227 20.0749C34.9041 22.5356 40.6692 21.0876 44.0939 18.2012C48.1565 14.7669 49.7315 10.3101 47.2782 7.37484C45.3009 5.00704 40.6104 4.61077 35.8217 9.0822C32.2694 12.3942 30.2087 17.4722 32.6227 20.0749ZM25.945 16.0584C28.5159 16.4645 31.3813 12.629 32.1124 9.05774C32.9857 4.81625 31.8327 1.18626 28.9281 0.564956C26.5877 0.061064 23.5114 2.18427 22.6871 7.45312C22.0738 11.3571 23.217 15.6279 25.9401 16.0633L25.945 16.0584ZM19.2918 16.3911C21.2397 15.5203 21.4899 11.6604 20.4056 8.93054C19.1152 5.68704 16.711 3.75465 14.4442 4.62545C12.6141 5.32992 11.4513 8.12334 13.2323 12.042C14.5522 14.943 17.236 17.3108 19.2967 16.3911H19.2918ZM8.41421 18.4115C10.0382 19.8449 12.413 20.5152 13.5218 19.2921C14.5669 18.1376 13.7181 15.6083 12.2903 14.2092C10.5976 12.5507 8.51725 12.0713 7.26119 13.3286C6.25047 14.3462 6.22103 16.4791 8.41421 18.4115ZM40.6153 34.5605C41.6947 34.2523 42.1559 33.4843 40.9538 32.1927C39.8106 30.9648 37.9609 29.6733 34.5999 28.7487C34.5999 28.7487 34.9385 33.1467 33.707 37.9117C35.2819 36.5272 38.1473 35.265 40.6153 34.5605ZM52.7195 49.9366C53.9363 49.9366 54.9225 48.9533 54.9225 47.74C54.9225 46.5268 53.9363 45.5434 52.7195 45.5434C51.5027 45.5434 50.5165 46.5268 50.5165 47.74C50.5165 48.9533 51.5027 49.9366 52.7195 49.9366ZM118.927 47.6324C120.144 47.6324 121.13 46.6491 121.13 45.4358C121.13 44.2225 120.144 43.2392 118.927 43.2392C117.71 43.2392 116.724 44.2225 116.724 45.4358C116.724 46.6491 117.71 47.6324 118.927 47.6324ZM142.287 56.9813C144.279 56.9813 145.893 56.0224 145.893 54.8434C145.893 53.6644 144.279 52.7055 142.287 52.7055C140.295 52.7055 138.681 53.6644 138.681 54.8434C138.681 56.0224 140.295 56.9813 142.287 56.9813ZM95.7834 54.8679C95.7834 53.6595 94.1299 52.686 92.0938 52.686C90.0576 52.686 88.4041 53.6644 88.4041 54.8679C88.4041 56.0713 90.0576 57.0498 92.0938 57.0498C94.1299 57.0498 95.7834 56.0713 95.7834 54.8679ZM89.4933 62.2404C88.2471 61.6093 87.4719 62.9791 87.4719 62.9791C87.4719 62.9791 85.6663 66.4867 83.0315 66.4867C80.593 66.4867 79.7491 63.5955 79.7491 63.5955C87.4915 59.6915 87.7663 51.7907 84.2827 49.5452C81.0542 47.6128 78.4735 49.8975 77.7228 50.69C78.1643 46.5219 78.3704 43.6942 78.3704 43.6795C78.3704 42.4369 77.6835 41.4683 76.663 41.3949C75.6424 41.3215 74.8132 41.977 74.6808 43.4153V43.4545C74.6464 43.8507 74.3766 47.3927 73.8319 52.231C73.7093 53.3122 73.567 54.4569 73.4051 55.6408C72.5023 58.6838 70.0491 64.5837 64.6373 64.3048C60.295 64.0847 60.4766 59.6915 60.614 58.356C60.7513 57.0204 62.2331 52.2212 64.9169 52.6371C66.3987 52.9159 65.1034 55.406 65.1034 55.406C65.1034 55.406 63.4401 58.0331 65.4714 58.7278C67.5075 59.4176 69.3573 56.2817 69.3131 53.3758C69.269 50.4698 67.1837 48.7625 65.0101 48.4885C63.0672 48.2586 56.1295 49.9659 56.6839 61.6337C56.6839 61.6337 56.0362 64.6767 53.9068 64.6326C51.7774 64.5886 51.0366 60.1563 51.6842 57.945C52.3319 55.7338 52.7489 54.3004 52.7489 54.3004C52.7489 54.3004 53.6762 52.0402 51.9639 51.4874C50.2515 50.9346 49.1427 52.823 48.8189 53.9775C48.495 55.1321 46.1841 65.66 43.2697 65.386C41.2335 65.0631 42.6662 60.2492 42.6662 60.2492C42.6662 60.2492 44.5159 54.7603 39.9382 55.6849C39.9382 55.6849 47.9259 44.0464 40.7723 41.2481C37.8578 40.2795 31.2881 40.9693 30.5031 60.5281C30.5031 60.5281 24.6742 67.4945 15.8377 67.4945C7.00115 67.4945 1.54518 56.7024 5.61263 41.8988C7.23176 35.857 14.4491 21.0044 24.3945 22.1589C32.7502 23.6951 27.5886 39.5457 27.5886 39.5457C27.5886 39.5457 23.4721 51.3064 18.0112 50.3377C12.305 49.2761 15.6659 39.9908 17.7021 37.4371C17.7021 37.4371 19.0612 35.4998 17.1771 34.7464C17.1771 34.7464 15.8377 34.1007 14.5178 35.8521C13.198 37.6035 10.9803 41.1552 10.9803 46.2968C10.9803 51.4385 14.1351 53.4345 16.7159 54.0704C19.7236 54.8092 25.9352 53.3024 30.8416 41.9575C30.8416 41.9575 38.1179 23.3233 27.0784 19.0524C27.0784 19.0524 12.2167 13.2699 2.07017 38.7923C-1.01599 46.5512 -2.49283 66.3449 11.5053 70.5864C11.5053 70.5864 20.5577 73.7663 30.1302 65.6062C30.1302 65.6062 29.4384 70.4934 32.0731 70.4494C34.2958 70.5864 33.9719 66.7118 33.9719 66.7118C33.9719 66.7118 33.7119 59.3784 37.8726 59.0556C39.0746 59.0115 39.32 59.8138 38.8735 62.9301C38.5202 65.4203 38.2553 68.8497 42.1902 69.3878C46.0124 69.9113 48.7747 64.4076 48.7747 64.4076C48.7747 64.4076 50.1632 68.5121 53.4015 68.5121C56.6397 68.5121 58.303 65.5132 58.303 65.5132C58.303 65.5132 63.4352 72.6166 71.9037 64.8674L72.0362 64.6669C71.8105 66.0367 71.575 67.4065 71.3395 68.7469C71.1628 69.7498 71.7516 70.8505 72.7525 71.0511C73.7534 71.2517 74.9752 70.8359 75.3431 68.9279C75.6277 67.4505 75.873 66.0122 76.0889 64.6033C76.9181 66.7216 78.8463 69.877 82.9285 70.0189C88.4973 70.2097 90.0674 64.481 90.0674 64.481C90.0674 64.481 90.6316 62.8274 89.4983 62.255L89.4933 62.2404ZM34.4184 57.4118C34.4184 57.4118 35.0955 44.4672 39.1041 44.3742C39.1041 44.3742 40.679 44.2226 40.3994 46.9573C40.0608 50.5236 36.2044 55.3228 34.4184 57.4118ZM77.0359 60.6259C77.5461 52.2799 81.0592 52.4756 81.0592 52.4756C81.0592 52.4756 83.0168 52.4463 82.7568 54.5792C82.2956 58.5908 77.0359 60.6211 77.0359 60.6211V60.6259ZM168.806 66.5454C168.188 66.4721 167.594 66.4036 167.02 66.2177C166.009 65.8948 165.097 65.2931 164.16 64.5446C163.674 64.1581 163.203 63.7178 162.747 63.2432C162.766 63.2383 162.786 63.2286 162.806 63.2237C166.157 61.9615 167.908 60.6847 168.016 60.6064C168.796 60.0291 168.958 58.9333 168.379 58.1554C167.8 57.3824 166.706 57.2161 165.926 57.7885L165.911 57.7983C165.735 57.9206 164.125 59.0311 161.137 60.1025C160.907 60.1856 160.661 60.2688 160.416 60.352C160.372 60.2835 160.323 60.2199 160.279 60.1514C159.106 58.4294 158.017 56.5948 157.124 54.863C156.79 54.2172 156.447 53.4834 156.118 52.7104C156.501 52.0842 156.879 51.4532 157.247 50.8074C157.271 50.7683 157.826 49.7947 158.39 48.42C158.674 47.7302 158.959 46.9426 159.185 46.106C159.405 45.2695 159.567 44.3791 159.572 43.4643C159.572 42.9702 159.523 42.4614 159.391 41.9526C159.293 41.571 159.145 41.1845 158.934 40.8176C158.777 40.5436 158.581 40.2746 158.35 40.0349C158.007 39.6729 157.58 39.3646 157.109 39.1396C156.638 38.9146 156.123 38.7629 155.578 38.6846L155.48 38.67H155.377C155.308 38.6651 155.24 38.6651 155.171 38.6651C154.788 38.6651 154.416 38.6993 154.052 38.7776C153.42 38.9097 152.816 39.1787 152.316 39.5701C151.938 39.8587 151.629 40.211 151.378 40.5828C151.006 41.1454 150.775 41.7618 150.633 42.388C150.49 43.0142 150.436 43.6648 150.436 44.3253C150.436 45.3184 150.559 46.3506 150.765 47.4025C151.069 48.9826 151.56 50.6166 152.129 52.1723C152.139 52.1968 152.149 52.2212 152.159 52.2457C149.44 56.2964 146.879 59.4323 144.421 62.0838C143.435 62.0104 142.419 61.9077 141.369 61.7707C140.408 61.6435 139.524 62.3186 139.397 63.2775C139.269 64.2364 139.946 65.1169 140.908 65.2441C141.036 65.2588 141.158 65.2735 141.281 65.2882C139.731 66.795 138.381 67.9984 137.375 68.8448L135.432 70.2782C134.652 70.8554 134.422 72.2252 135.001 73.0031C135.58 73.7809 137.003 73.8837 137.778 73.3064C137.827 73.2673 140.623 71.648 144.804 67.2206C145.265 66.7313 145.741 66.2226 146.227 65.6893C146.85 65.7138 147.468 65.7236 148.067 65.7236C152.404 65.7236 156.054 65.1659 158.998 64.4125C160.146 65.8263 161.378 67.157 162.889 68.1599C163.713 68.7078 164.356 69.1334 165.303 69.471C166.25 69.8085 167.398 69.97 168.453 70.0238C169.424 70.0727 170.44 69.3535 170.484 68.3898C170.533 67.4212 169.807 66.6726 168.816 66.5503L168.806 66.5454ZM154.052 43.1316C154.106 42.8968 154.175 42.7207 154.239 42.5984C154.288 42.5054 154.337 42.4418 154.381 42.3929C154.45 42.3244 154.499 42.2853 154.607 42.2412C154.71 42.2021 154.877 42.1581 155.147 42.1581C155.382 42.2021 155.534 42.2657 155.627 42.3146C155.706 42.3586 155.755 42.3978 155.794 42.4418C155.824 42.476 155.853 42.5103 155.878 42.5641C155.917 42.6375 155.961 42.7451 155.99 42.8968C156.02 43.0435 156.04 43.2343 156.04 43.4545C156.04 43.9388 155.941 44.5601 155.77 45.201C155.515 46.1598 155.112 47.1578 154.769 47.8917C154.7 48.0433 154.631 48.1803 154.568 48.3075C154.42 47.7694 154.298 47.2361 154.2 46.7273C154.028 45.837 153.935 45.0053 153.935 44.3106C153.935 43.841 153.979 43.4349 154.048 43.1267L154.052 43.1316ZM149.259 62.1963C150.78 60.3716 152.335 58.3609 153.846 56.179C153.895 56.2719 153.94 56.3698 153.989 56.4578C154.695 57.8276 155.495 59.3099 156.412 60.7825C156.525 60.9684 156.643 61.1494 156.761 61.3304C154.626 61.7854 152.129 62.1229 149.264 62.1963H149.259ZM138.072 61.575C138.396 60.215 137.449 59.8236 137.356 59.7992C137.263 59.7747 136.085 59.3589 135.531 60.5379C135.531 60.5379 134.353 63.9281 131.762 63.9966C129.172 64.0651 128.2 61.9908 128.2 61.9908C128.2 61.9908 131.964 59.0066 134.059 53.229C136.154 47.4465 136.041 41.8499 132.577 41.0524C129.245 40.2844 125.237 43.8214 123.539 50.0638C121.94 55.9539 123.632 60.5183 123.878 61.3793C123.848 61.4087 122.337 62.9791 120.272 62.7296C118.196 62.485 117.401 59.5301 118.235 55.9637C119.104 52.2506 120.149 49.7213 118.206 49.1049C115.522 48.5227 115.061 51.3162 114.722 52.7349C114.722 52.7349 112.931 61.2228 108.03 61.1298C106.269 61.1494 105.066 60.352 104.394 59.7209C105.169 58.9773 105.964 58.1603 106.744 57.2552C108.143 55.6311 109.497 53.7378 110.606 51.5755C111.42 49.9855 111.98 48.6206 112.338 47.4269C112.696 46.2332 112.853 45.2108 112.853 44.3008C112.853 43.5132 112.73 42.8136 112.5 42.2168C112.328 41.7667 112.102 41.3753 111.852 41.0573C111.474 40.5779 111.047 40.2599 110.699 40.0691C110.503 39.9615 110.331 39.8881 110.194 39.8392C110.076 39.7903 109.924 39.7267 109.732 39.668C109.384 39.5652 108.913 39.4723 108.349 39.4723C107.721 39.4723 106.97 39.5946 106.19 39.9223C105.606 40.167 105.003 40.529 104.409 41.0133C103.516 41.7471 102.638 42.7647 101.794 44.1443C100.945 45.5288 100.126 47.285 99.3455 49.5305L99.3357 49.5599L99.3259 49.5892C98.2366 53.0871 97.6822 56.7709 97.5694 60.259C96.8579 60.7531 96.225 61.2766 96.225 61.2766C96.225 61.2766 94.4783 62.3284 95.2879 64.1385C95.6804 65.0191 96.7942 65.1903 97.6724 64.7941C97.7411 65.6062 97.8294 66.3987 97.9472 67.1619C98.1483 68.4485 98.4182 69.6569 98.7665 70.7625C99.0266 71.5942 99.3308 72.3622 99.684 73.0716C99.949 73.6048 100.243 74.0989 100.577 74.5539C101.077 75.2339 101.661 75.8308 102.378 76.2759C102.736 76.4961 103.128 76.6771 103.541 76.8043C103.958 76.9266 104.394 76.9951 104.836 76.9951C104.865 76.9951 104.89 76.9951 104.919 76.9951C105.331 76.9902 105.734 76.9364 106.121 76.8385C106.798 76.6673 107.426 76.3346 107.927 75.8895C108.305 75.5568 108.604 75.1752 108.844 74.7692C109.203 74.1625 109.414 73.5168 109.551 72.8661C109.683 72.2155 109.737 71.5501 109.737 70.8799C109.737 70.0336 109.654 69.1725 109.517 68.3311C109.335 67.201 109.055 66.1052 108.736 65.112C112.161 64.6571 114.413 62.3333 114.977 61.4478C114.977 61.4478 115.419 65.5523 119.325 66.384C122.077 67.0738 125.384 64.4712 125.384 64.4712C125.384 64.4712 127.209 67.4212 130.84 67.5826C134.471 67.744 137.385 64.887 138.077 61.5848L138.072 61.575ZM102.849 50.7144C103.477 48.9092 104.115 47.515 104.723 46.4534C105.179 45.656 105.621 45.0493 106.018 44.5943C106.617 43.9094 107.122 43.5621 107.505 43.3811C107.888 43.2001 108.153 43.1658 108.349 43.1658C108.506 43.1658 108.619 43.1903 108.673 43.2099H108.692L108.844 43.2979L108.928 43.3175C108.952 43.342 108.992 43.3909 109.046 43.5279C109.095 43.6648 109.158 43.9046 109.158 44.3057C109.158 44.7705 109.075 45.4505 108.795 46.3751C108.521 47.2997 108.054 48.4689 107.318 49.9023C106.367 51.7565 105.189 53.4149 103.948 54.8581C103.143 55.7925 102.314 56.6046 101.504 57.3188C101.755 55.0978 102.201 52.8523 102.863 50.7193L102.849 50.7144ZM105.915 72.1372C105.861 72.4014 105.788 72.6117 105.714 72.7683C105.66 72.8857 105.601 72.9688 105.552 73.0324C105.474 73.1254 105.42 73.1645 105.331 73.2086C105.243 73.2477 105.106 73.2917 104.851 73.2966H104.836C104.703 73.2966 104.595 73.2722 104.448 73.2037C104.321 73.145 104.164 73.0373 103.987 72.8661C103.678 72.5726 103.31 72.0687 102.971 71.3838C102.461 70.3564 102.015 68.9279 101.715 67.2548C101.45 65.797 101.288 64.1532 101.254 62.4116C101.755 62.9889 102.893 64.1043 104.635 64.7256C104.767 65.0142 104.905 65.3567 105.037 65.7285C105.307 66.4818 105.562 67.3673 105.744 68.2675C105.925 69.1676 106.033 70.0825 106.033 70.8701C106.033 71.3495 105.994 71.785 105.92 72.1372H105.915ZM126.841 58.7963C126.365 56.859 126.395 54.1977 127.087 51.3847C128.784 45.3282 130.82 43.8801 131.65 44.0954C132.484 44.3106 132.793 47.0502 131.247 51.2575C129.348 56.4236 126.836 58.7914 126.836 58.7914L126.841 58.7963Z" fill="#333333"/>
<path d="M164.935 44.2813C164.528 44.6775 164.037 44.8732 163.463 44.8732C162.889 44.8732 162.374 44.6727 161.972 44.2666C161.569 43.8655 161.363 43.3664 161.363 42.7794C161.363 42.1923 161.579 41.6591 162.021 41.253C162.433 40.8763 162.914 40.6855 163.468 40.6855C164.047 40.6855 164.543 40.891 164.955 41.2971C165.367 41.708 165.573 42.2021 165.573 42.7794C165.573 43.3567 165.362 43.8752 164.945 44.2813H164.935ZM162.232 41.5661C161.898 41.9086 161.731 42.3097 161.731 42.7794C161.731 43.249 161.903 43.6795 162.242 44.0171C162.58 44.3596 162.987 44.5259 163.468 44.5259C163.949 44.5259 164.351 44.3547 164.69 44.0122C165.028 43.6698 165.195 43.2588 165.195 42.7794C165.195 42.3 165.028 41.9086 164.69 41.5661C164.351 41.2188 163.939 41.0427 163.463 41.0427C162.987 41.0427 162.57 41.2188 162.232 41.5661ZM162.546 43.9437V41.62C162.688 41.62 162.909 41.62 163.193 41.62C163.483 41.62 163.64 41.62 163.674 41.62C163.861 41.6346 164.013 41.6738 164.131 41.7374C164.337 41.8499 164.44 42.0358 164.44 42.2902C164.44 42.4859 164.386 42.6277 164.278 42.7109C164.17 42.799 164.032 42.8479 163.875 42.8674C164.023 42.8968 164.131 42.9408 164.204 42.9995C164.342 43.1121 164.41 43.2833 164.41 43.523V43.7334C164.41 43.7334 164.41 43.7774 164.41 43.8018C164.41 43.8263 164.42 43.8459 164.425 43.8703L164.445 43.9339H163.861C163.841 43.8605 163.831 43.7529 163.821 43.6111C163.817 43.4692 163.802 43.3762 163.782 43.3273C163.753 43.2441 163.694 43.1903 163.61 43.1561C163.566 43.1365 163.493 43.1267 163.399 43.1218L163.267 43.1121H163.139V43.9339H162.531L162.546 43.9437ZM163.659 42.0798C163.576 42.0505 163.458 42.0309 163.306 42.0309H163.159V42.706H163.395C163.537 42.706 163.65 42.6766 163.728 42.6228C163.807 42.5641 163.846 42.4761 163.846 42.3489C163.846 42.2217 163.782 42.1336 163.659 42.0847V42.0798Z" fill="#333333"/>
</svg>
