<svg width="172" height="34" viewBox="0 0 172 34" fill="none" xmlns="http://www.w3.org/2000/svg">
<path d="M160.485 27.9971C158.782 27.1116 158.517 24.602 158.556 18.5112L158.596 9.17211H155.367L156.093 7.4354H158.596V3.01289L164.591 0.801636V7.28863H167.339L166.613 9.21125H164.591L164.582 25.3749C164.714 26.6762 165.151 27.4443 165.779 28.002H160.485V27.9971Z" fill="#333333"/>
<path d="M9.74886 12.1025C10.3573 13.7658 11.7409 15.4879 10.7547 17.4154C10.2788 19.3722 8.42411 20.9573 6.46153 21.2753C4.42045 21.4612 2.45787 21.1187 0.946681 19.8761C-0.142552 14.2159 2.16839 8.98129 6.64798 5.86499L9.74886 12.1074V12.1025Z" fill="#333333"/>
<path d="M17.6629 29.3424C16.6424 32.7669 6.50069 30.5165 3.31641 24.9003C7.4918 25.365 12.202 21.6764 12.2805 17.474L17.6629 29.3424Z" fill="#333333"/>
<path d="M21.8131 28.8973C22.2792 28.6918 23.2114 28.227 23.442 27.2388L12.5301 3.64395C11.799 3.551 11.2691 3.4874 10.3418 4.14295L21.8082 28.8973H21.8131Z" fill="#333333"/>
<path d="M26.7155 23.7751C31.357 16.7696 27.4466 5.2681 17.4473 3.65369L26.7155 23.7751Z" fill="#333333"/>
<path d="M113.554 8.1592C114.648 7.23947 116.586 7.21501 117.837 7.81185C118.362 8.07114 118.868 8.42337 119.201 8.88324L116.783 12.6257C116.478 12.386 116.258 12.2735 115.86 12.0778C114.663 11.5641 113.397 11.8626 112.676 12.5132V23.4423C112.661 25.3307 112.99 27.0576 113.971 27.9529H108.481C107.338 27.0772 107.053 25.6731 106.94 24.4501L106.896 9.92037C106.945 8.74136 106.646 8.2228 106.17 7.56725L111.861 7.58682C112.323 7.91459 112.342 8.48697 112.588 8.92237L113.554 8.15431V8.1592Z" fill="#333333"/>
<path d="M120.492 11.7501C120.448 10.3705 120.757 8.717 119.85 7.52332H125.124C125.477 7.78749 125.674 8.22289 125.782 8.63873C126.066 9.01053 126.046 9.53399 126.179 9.97429L126.223 25.458C126.444 26.3777 126.792 27.3072 127.474 28.0312L121.827 28.041C119.982 26.2603 120.586 23.3348 120.443 20.3114L120.487 11.7501H120.492Z" fill="#333333"/>
<path d="M128.839 11.9018C129.408 10.3265 131.189 9.534 132.48 8.68277C134.457 7.95873 136.63 6.16331 138.848 7.63096C140.693 8.83443 142.317 10.1944 143.485 12.0535C143.769 12.7775 143.902 13.5847 144.098 14.3528C144.098 15.385 144.319 16.1482 144.294 17.1755C144.363 18.2959 144.363 19.2987 144.294 20.3946C144.231 22.2536 143.352 23.9218 141.88 25.2085C139.687 27.1555 136.92 29.3717 133.932 27.86C131.253 26.6125 128.088 24.1371 128.289 20.7419C128.182 18.3301 128.069 16.2509 128.397 13.9076C128.525 13.2276 128.461 12.484 128.839 11.892V11.9018ZM134.329 22.8407C134.594 23.8044 135.1 24.9883 136.262 25.1204C136.944 25.14 137.45 24.5725 137.842 24.0931C139.074 21.6812 138.897 19.0541 138.897 16.3194C138.5 14.2843 138.986 11.5007 136.787 10.2532C136.017 9.96941 135.428 10.4929 134.943 10.9772C134.084 12.2687 133.986 13.7462 133.932 15.3899C133.647 18.017 133.956 20.194 134.329 22.8456" fill="#333333"/>
<path d="M148.209 27.997C146.507 27.1115 146.242 24.6018 146.281 18.5111L146.32 9.17199H143.092L143.818 7.43528H146.32V3.01277L152.316 0.801514V7.28851H155.059L154.332 9.21113H152.311L152.301 25.3748C152.434 26.6761 152.87 27.4442 153.498 28.0019H148.204L148.209 27.997Z" fill="#333333"/>
<path d="M93.3883 9.9205C93.3539 8.7415 93.138 8.22293 92.6621 7.56738L98.3487 7.58695C98.8099 7.91472 98.8295 8.4871 99.0748 8.9225L100.041 8.15444C101.14 7.23471 103.069 7.21025 104.325 7.80709C104.85 8.06638 105.355 8.41861 105.684 8.87847L103.27 12.621C102.961 12.3813 102.74 12.2687 102.347 12.0731C101.15 11.5594 99.8844 11.8578 99.1632 12.5085V23.4375C99.1484 25.3259 99.4772 27.0528 100.458 27.9481H94.9632C93.82 27.0724 93.4962 25.7662 93.4275 24.4453L93.3833 9.91561L93.3883 9.9205Z" fill="#333333"/>
<path d="M50.3639 15.6687L48.2884 19.9102C46.8754 22.415 44.8932 25.4824 41.8561 26.2407C40.6785 26.6516 39.6384 26.2798 38.505 26.2015L34.8398 32.1797C35.1146 32.4733 35.5022 32.7179 35.88 32.8646C42.3271 35.3205 44.9275 32.6787 51.2765 18.3741L57.2771 31.1181H65.2648L61.4917 22.5177L63.6309 18.0708L69.5285 30.9225L77.1727 30.9714L63.7928 1.65269L57.6303 4.7054L62.4583 15.6443L60.3436 19.9445L51.4923 0.894409L45.0011 4.19172L50.3688 15.6687H50.3639Z" fill="#333333"/>
<path d="M74.9219 20.8348C75.074 18.7116 76.2417 16.7156 78.2141 15.6442C80.1718 14.4407 82.4533 13.9564 84.4748 12.9095C84.828 12.6257 85.2647 12.2735 85.2892 11.8136C85.3138 11.2461 85.0243 10.8058 84.5189 10.6102C81.4475 9.95461 78.8961 11.8821 76.6588 13.7852C76.9434 12.386 77.1642 10.8499 77.8216 9.53878C78.1504 9.18654 78.3466 8.70711 78.7882 8.44294C80.9617 7.37156 83.6848 7.06335 86.1233 7.23947C88.1203 7.37156 89.9651 8.79517 90.6471 10.6102C90.9955 11.4663 90.9758 12.43 91.0445 13.3008L91.0691 25.1692C91.0887 26.1966 91.5744 27.1603 92.1877 27.992H86.5012C85.8192 27.3805 85.4855 26.6124 85.2942 25.6486C83.7045 27.0527 80.3779 29.1319 78.4006 27.7523C76.3497 26.8325 74.4705 23.7456 74.9317 20.8299L74.9219 20.8348ZM85.0145 16.7009C84.9703 15.879 84.3767 15.791 83.9596 15.791C82.6005 15.9866 81.4279 17.1265 80.7753 18.286C80.1915 19.328 80.059 20.2037 80.005 21.1087C80.005 22.0872 79.9412 22.8161 80.3337 23.5597C80.5545 24.044 81.0354 24.2593 81.4966 24.3914C82.3748 24.5675 83.1893 24.3229 83.8664 23.8679C85.4708 22.9726 85.1813 21.1723 85.2058 19.5775L85.0047 16.696L85.0145 16.7009Z" fill="#333333"/>
<path d="M169.164 27.684C168.256 27.684 167.52 26.9502 167.52 26.0452C167.52 25.1401 168.256 24.4161 169.164 24.4161C170.072 24.4161 170.798 25.1499 170.798 26.0452C170.798 26.9404 170.067 27.684 169.164 27.684ZM169.164 28.0314C170.263 28.0314 171.146 27.1459 171.146 26.0452C171.146 24.9444 170.263 24.0687 169.164 24.0687C168.065 24.0687 167.172 24.9542 167.172 26.0452C167.172 27.1361 168.06 28.0314 169.164 28.0314ZM169.046 26.1772C169.174 26.187 169.296 26.1772 169.385 26.2702C169.493 26.3827 169.493 26.5637 169.517 26.7643C169.532 26.9013 169.571 27.048 169.596 27.1801H170.062C169.983 26.9698 169.954 26.7252 169.924 26.505C169.89 26.2506 169.851 26.1088 169.532 26.0452V26.0354C169.841 25.9718 170.008 25.7614 170.008 25.4923C170.008 24.964 169.566 24.8515 169.134 24.8515H168.379V27.1801H168.747V26.1724H169.051L169.046 26.1772ZM168.742 25.8152V25.2184H169.179C169.468 25.2184 169.547 25.3113 169.547 25.4826C169.547 25.6538 169.468 25.8054 169.125 25.8152H168.737H168.742Z" fill="#333333"/>
</svg>
