<svg width="68" height="92" viewBox="0 0 68 92" fill="none" xmlns="http://www.w3.org/2000/svg">
<path d="M58.0564 57.6945C44.9512 70.7614 23.7112 70.7614 10.6355 57.6945C-2.46964 44.6275 -2.46964 23.4494 10.6355 10.4118C23.7406 -2.65516 44.9807 -2.65516 58.0564 10.4118C71.1615 23.4787 71.1615 44.6569 58.0564 57.6945Z" fill="white"/>
<path d="M53.0084 9.22793C47.7928 5.32399 41.3408 3.01001 34.3589 3.01001C17.1716 3.03936 3.24219 16.9282 3.24219 34.036C3.24219 40.9389 5.50406 47.2938 9.31147 52.4354C30.2228 46.3839 46.7477 30.0196 53.0084 9.22304" fill="#333333"/>
<path d="M60.4555 17.1775C61.0885 19.2126 61.4221 21.3603 61.4221 23.5862C61.4221 30.7924 57.8649 37.1179 52.4825 41.0806C43.0769 47.9834 29.3928 47.9834 10.498 53.9274C16.2092 60.7226 24.7856 65.0668 34.3581 65.0668C51.5454 65.0668 65.4749 51.178 65.4749 34.0407C65.4454 27.8228 63.6251 22.0501 60.4555 17.1775Z" fill="#333333"/>
<path d="M14.4721 78.2954C16.4837 78.2954 18.0588 79.944 18.0588 82.0623C18.0588 84.1806 16.5672 85.8048 14.5849 85.8048C13.5644 85.8048 12.6518 85.4477 11.9649 84.7873C11.2486 84.1268 10.861 83.1631 10.861 82.121C10.861 80.0321 12.4899 78.2954 14.477 78.2954H14.4721ZM14.3936 87.6492H14.6684C16.1305 87.6492 17.4797 87.1013 18.5052 86.0788C19.5257 85.0319 20.1047 83.6327 20.1047 82.0917C20.1047 78.902 17.6515 76.3972 14.5065 76.3972C11.9404 76.3972 9.79134 78.0752 9.12897 80.58C9.01612 80.991 8.9082 82.0917 8.9082 83.168V91.0884C8.9082 91.2253 9.01615 91.3379 9.15844 91.3379H10.5666C10.704 91.3379 10.8413 91.2253 10.8413 91.0884V86.1081L10.9247 86.1913C11.5871 86.8224 12.8824 87.566 14.3985 87.6492" fill="#333333"/>
<path d="M30.7478 81.1329C30.473 81.216 30.0854 81.2992 29.5898 81.353C29.3691 81.3824 29.1188 81.4068 28.8195 81.4068C28.3239 81.4068 27.7695 81.3775 27.2495 81.3236H27.22C26.7244 81.2943 26.2829 81.2405 25.8413 81.2405C25.5126 81.2405 25.2329 81.2698 24.9581 81.2943C24.1289 81.4068 23.4666 81.6514 23.4666 81.6514V81.5976C23.6334 79.949 25.0121 78.5449 26.7196 78.2954C26.8864 78.266 27.0238 78.2661 27.1906 78.2661C28.7656 78.2661 30.3062 79.4744 30.7772 81.0742L30.8066 81.128H30.7527L30.7478 81.1329ZM32.7054 81.8227C32.7054 81.6857 32.676 81.5193 32.6515 81.3285C32.5975 81.0008 32.5386 80.6681 32.4306 80.3403C31.6603 77.9187 29.6144 76.3777 27.1906 76.3777C26.9404 76.3777 26.695 76.407 26.4448 76.4315C23.3537 76.818 21.2587 79.6212 21.6708 82.7864C22.029 85.6483 24.3743 87.6296 27.1857 87.6296C27.4065 87.6296 27.6567 87.6003 27.9315 87.5758C29.4476 87.385 30.7429 86.749 31.7389 85.5407C31.7928 85.4575 31.8222 85.3744 31.8222 85.2912C31.8222 85.2374 31.7683 85.1542 31.6849 85.1004C31.5181 84.9879 30.9391 84.6894 30.6104 84.5476C30.5024 84.4938 30.4436 84.4644 30.3896 84.4351C30.2768 84.3813 30.2227 84.3519 30.1688 84.3519C30.0854 84.3519 30.002 84.3812 29.948 84.4889C29.3151 85.2325 28.5153 85.619 27.6861 85.7266C27.5193 85.7559 27.3574 85.7559 27.2151 85.7559C25.699 85.7559 24.1829 84.7677 23.7659 83.3881V83.3588L23.7953 83.3294C23.8787 83.3001 24.5657 82.9723 25.6156 82.9723C25.753 82.9723 25.8658 82.9723 26.0032 83.0017C26.3074 83.031 26.6116 83.0555 26.9158 83.1093C27.4948 83.1924 28.1032 83.2756 28.8195 83.2756C29.2611 83.2756 29.6732 83.2463 30.1148 83.1925C31.8272 82.8647 32.5141 82.3657 32.5141 82.3657C32.7349 82.1993 32.7054 82.0624 32.7054 81.8129" fill="#333333"/>
<path d="M39.8237 78.2954C41.8353 78.2954 43.4397 79.944 43.4397 82.0623C43.4397 84.1806 41.9236 85.8048 39.9365 85.8048C38.9454 85.8048 38.0034 85.4477 37.3165 84.7873C36.6001 84.1268 36.2125 83.1631 36.2125 82.121C36.242 80.0321 37.8415 78.2954 39.8286 78.2954H39.8237ZM39.7746 87.6492H40.0493C41.5115 87.6492 42.8657 87.1013 43.8862 86.0788C44.9068 85.0319 45.4563 83.6327 45.4563 82.0917C45.4563 78.902 43.003 76.3972 39.858 76.3972C37.2919 76.3972 35.1429 78.0752 34.4805 80.58C34.3677 80.991 34.2598 82.0917 34.2598 83.168V91.0884C34.2598 91.2253 34.3677 91.3379 34.51 91.3379H35.9181C36.0555 91.3379 36.1929 91.2253 36.1929 91.0884V86.1081L36.2763 86.1913C36.9681 86.8224 38.234 87.566 39.7795 87.6492" fill="#333333"/>
<path d="M46.801 85.8634C48.0424 86.9935 49.3671 87.6246 51.1334 87.6246H51.1874C54.1951 87.5952 55.5444 85.9759 55.5444 84.3517C55.5444 82.1258 53.4199 81.5191 52.787 81.3822C52.5662 81.3283 52.3748 81.299 52.1245 81.2452C51.5995 81.1376 51.05 81.0544 50.5545 80.8881C50.2258 80.8049 49.0924 80.4184 49.0924 79.5672C49.0924 78.6328 50.1129 78.1387 51.0795 78.1387C51.9087 78.1387 52.5711 78.2756 53.4542 78.9361C53.5082 78.9899 53.621 79.0486 53.729 79.0486C53.8124 79.0486 53.8958 79.0193 53.9792 78.9361C54.2294 78.7698 54.671 78.3882 54.9457 78.1093C55.0292 78.0261 55.0586 77.9723 55.0586 77.8892C55.0586 77.7767 54.9458 77.669 54.9213 77.6397C53.7633 76.7297 52.6299 76.3481 51.0599 76.3481C48.798 76.3481 47.0856 77.806 47.0856 79.7042C47.0856 81.2158 48.3564 82.2921 50.6183 82.7569L52.0264 83.0308C52.9636 83.1972 53.4886 83.6913 53.4591 84.3811C53.4297 85.0708 52.6054 85.7557 51.2512 85.7557C50.1473 85.7557 49.1561 85.3155 48.3269 84.5719C48.273 84.518 48.1896 84.4642 48.1062 84.4642C48.0522 84.4642 47.9688 84.4936 47.9148 84.5474C47.8314 84.6306 46.8648 85.3742 46.7863 85.4818C46.7323 85.5356 46.7029 85.5943 46.7323 85.6481C46.7029 85.7606 46.7863 85.8389 46.8158 85.8683" fill="#333333"/>
<path d="M59.6304 77.0332C59.6304 76.8962 59.5176 76.7837 59.3802 76.7837H57.9475C57.8101 76.7837 57.6973 76.8913 57.6973 77.0332V87.1257C57.6973 87.2627 57.8101 87.3752 57.9475 87.3752H59.3802C59.5176 87.3752 59.6304 87.2676 59.6304 87.1257V77.0332Z" fill="#333333"/>
<path d="M58.6653 73.1536C57.9735 73.1536 57.3945 73.7308 57.3945 74.4451C57.3945 75.1593 57.9735 75.7366 58.6653 75.7366C59.3572 75.7366 59.9607 75.1593 59.9607 74.4451C59.9607 73.7308 59.3817 73.1536 58.6653 73.1536Z" fill="#333333"/>
</svg>
