<svg width="171" height="38" viewBox="0 0 171 38" fill="none" xmlns="http://www.w3.org/2000/svg">
<path d="M167.23 0L157.942 19.8621L154.429 12.3282H150.637L156.402 24.6516H159.468L170.998 0H167.23Z" fill="#333333"/>
<path d="M127.287 36.8819H134.789V23.2132C134.789 20.0969 136.615 17.8906 139.308 17.8906C142.002 17.8906 143.253 19.7105 143.253 22.3033V36.8819H150.76V20.865C150.76 15.4445 147.487 11.6091 142.198 11.6091C138.827 11.6091 136.472 13.0473 134.696 15.6842H134.554V12.3233H127.287V36.8819ZM112.568 11.6531C104.728 11.6531 99.4826 17.2644 99.4826 24.6515C99.4826 32.0387 104.728 37.65 112.568 37.65C120.409 37.65 125.654 31.9898 125.654 24.6515C125.654 17.3133 120.409 11.6531 112.568 11.6531ZM112.519 32.1365C108.962 32.1365 107.083 29.1621 107.083 24.6564C107.083 20.1508 108.957 17.1714 112.519 17.1714C116.081 17.1714 118.054 20.0969 118.054 24.6564C118.054 29.2159 116.081 32.1365 112.519 32.1365ZM78.1248 36.8819H99.1931V30.982H87.2606V30.8401L98.6632 18.0814V12.3233H78.1199V18.2232H89.6648V18.37L78.1199 31.2266V36.8868L78.1248 36.8819ZM68.5033 36.8819H76.0542V12.3233H68.5033V36.8819ZM50.9921 36.8819H58.4941V25.6104C58.4941 20.4785 61.5704 18.2232 66.2855 18.8494H66.4278V12.3771C66.0451 12.2304 65.6085 12.1863 64.8872 12.1863C61.9531 12.1863 59.9807 13.5317 58.2978 16.4083H58.1555V12.3331H50.9872V36.8917L50.9921 36.8819ZM37.1853 32.1806C33.8686 32.1806 31.8472 30.0231 31.4595 26.7111H49.2111C49.2601 21.4325 47.8667 17.2155 44.9277 14.5786C42.8572 12.6609 40.1194 11.6042 36.6555 11.6042C29.2467 11.6042 24.0999 17.2155 24.0999 24.5537C24.0999 31.8919 29.0063 37.6011 37.1363 37.6011C40.2175 37.6011 42.6659 36.7841 44.6873 35.3947C46.8511 33.9075 48.3917 31.7501 48.8234 29.5926H41.6061C40.8848 31.2266 39.3932 32.1806 37.1804 32.1806H37.1853ZM36.7978 16.9757C39.4423 16.9757 41.2724 18.9424 41.5619 21.819H31.5086C32.0876 18.8935 33.6723 16.9757 36.8026 16.9757H36.7978ZM9.09589 36.8819H16.9855L25.5472 12.3233H17.9962L13.1879 28.1054H13.0897L8.28146 12.3233H0.539062L9.1008 36.8819H9.09589ZM68.5033 3.5957H76.0542V10.2637H68.5033V3.5957Z" fill="#333333"/>
</svg>
