<svg width="171" height="48" viewBox="0 0 171 48" fill="none" xmlns="http://www.w3.org/2000/svg">
<path d="M3.7956 43.5082C4.25681 43.743 4.96825 43.9778 5.70422 43.9778C6.49416 43.9778 6.91119 43.6501 6.91119 43.156C6.91119 42.6618 6.54812 42.4123 5.63552 42.0895C4.36966 41.6492 3.55028 40.9545 3.55028 39.8489C3.55028 38.5524 4.6346 37.5642 6.42546 37.5642C7.28409 37.5642 7.91706 37.7452 8.36845 37.9458L7.98573 39.3303C7.68153 39.1835 7.13692 38.9683 6.39605 38.9683C5.65517 38.9683 5.2921 39.3058 5.2921 39.6972C5.2921 40.1815 5.71896 40.3968 6.70025 40.7686C8.04461 41.2627 8.67265 41.9623 8.67265 43.0288C8.67265 44.3007 7.69135 45.3917 5.60121 45.3917C4.73276 45.3917 3.87413 45.1568 3.44727 44.922L3.7956 43.5033V43.5082Z" fill="#333333"/>
<path d="M14.4731 43.9337C14.4731 44.4621 14.4977 44.9709 14.5517 45.2742H13.0061L12.9031 44.7214H12.8687C12.5056 45.1616 11.9414 45.3965 11.2889 45.3965C10.1702 45.3965 9.50781 44.5893 9.50781 43.7087C9.50781 42.2802 10.7933 41.5953 12.7461 41.6051V41.5268C12.7461 41.2332 12.5891 40.8174 11.7403 40.8174C11.176 40.8174 10.5774 41.0082 10.2192 41.2332L9.90526 40.1325C10.288 39.9173 11.0436 39.6482 12.0494 39.6482C13.8893 39.6482 14.4731 40.7294 14.4731 42.0209V43.9337ZM12.8049 42.6715C11.9021 42.6618 11.2005 42.877 11.2005 43.5375C11.2005 43.9778 11.4949 44.193 11.8776 44.193C12.3045 44.193 12.6578 43.9093 12.7706 43.5619C12.7951 43.4739 12.8049 43.3711 12.8049 43.2684V42.6715Z" fill="#333333"/>
<path d="M16.964 39.7708L17.7098 42.3245C17.8472 42.7892 17.9453 43.2246 18.0238 43.6649H18.0582C18.1465 43.2148 18.2398 42.799 18.3624 42.3245L19.0738 39.7708H20.8794L18.8236 45.2695H17.1063L15.0996 39.7708H16.9591H16.964Z" fill="#333333"/>
<path d="M22.8223 43.0678C22.8763 43.7772 23.5779 44.1147 24.3777 44.1147C24.9616 44.1147 25.4375 44.0365 25.8987 43.8897L26.1244 45.0491C25.5601 45.2742 24.8732 45.3965 24.1275 45.3965C22.2532 45.3965 21.1836 44.3055 21.1836 42.5835C21.1836 41.1892 22.052 39.6482 23.9704 39.6482C25.7515 39.6482 26.4335 41.0327 26.4335 42.3927C26.4335 42.6862 26.3991 42.9455 26.3746 43.0678H22.8223ZM24.8438 41.8986C24.8438 41.4828 24.6623 40.7832 23.8723 40.7832C23.1511 40.7832 22.8567 41.4338 22.8125 41.8986H24.8438Z" fill="#333333"/>
<path d="M29.7414 41.5268C29.7414 40.8419 29.7169 40.2548 29.6973 39.7705H31.1397L31.2183 40.5141H31.2526C31.4881 40.1668 31.9738 39.6482 32.9208 39.6482C33.6322 39.6482 34.1965 40.0102 34.432 40.5826H34.4565C34.6577 40.2891 34.9079 40.0787 35.168 39.9173C35.4722 39.7362 35.8107 39.6482 36.2179 39.6482C37.2777 39.6482 38.0775 40.3918 38.0775 42.0356V45.2742H36.4093V42.2802C36.4093 41.4828 36.1493 41.018 35.5948 41.018C35.1974 41.018 34.9177 41.2871 34.8049 41.6148C34.7607 41.7371 34.7362 41.9182 34.7362 42.0551V45.2742H33.068V42.1921C33.068 41.4974 32.8178 41.0229 32.2781 41.0229C31.8365 41.0229 31.5764 41.3605 31.4783 41.6393C31.4194 41.7763 31.4096 41.9328 31.4096 42.0698V45.2742H29.7414V41.5268Z" fill="#333333"/>
<path d="M44.892 42.4612C44.892 44.4768 43.4593 45.3965 41.9825 45.3965C40.3683 45.3965 39.127 44.3398 39.127 42.5639C39.127 40.7881 40.2996 39.6482 42.0708 39.6482C43.8421 39.6482 44.892 40.8076 44.892 42.4612ZM40.8982 42.515C40.8982 43.4592 41.2907 44.1685 42.0267 44.1685C42.694 44.1685 43.1208 43.5032 43.1208 42.515C43.1208 41.6931 42.8068 40.8615 42.0267 40.8615C41.2024 40.8615 40.8982 41.7029 40.8982 42.515Z" fill="#333333"/>
<path d="M45.9563 41.5268C45.9563 40.8419 45.9317 40.2548 45.9121 39.7705H47.3988L47.4773 40.5239H47.5116C47.7373 40.1766 48.3016 39.6482 49.2142 39.6482C50.3427 39.6482 51.1915 40.3918 51.1915 42.0111V45.2742H49.4742V42.2264C49.4742 41.517 49.224 41.0327 48.6057 41.0327C48.1298 41.0327 47.8502 41.3605 47.7374 41.6736C47.6932 41.7861 47.6687 41.9426 47.6687 42.0992V45.2693H45.9514V41.5219L45.9563 41.5268Z" fill="#333333"/>
<path d="M53.8907 43.0678C53.9496 43.7772 54.6463 44.1147 55.4461 44.1147C56.0348 44.1147 56.5058 44.0365 56.967 43.8897L57.1927 45.0491C56.6285 45.2742 55.9367 45.3965 55.1958 45.3965C53.3216 45.3965 52.252 44.3055 52.252 42.5835C52.252 41.1892 53.1204 39.6482 55.0388 39.6482C56.8199 39.6482 57.497 41.0327 57.497 42.3927C57.497 42.6862 57.4626 42.9455 57.443 43.0678H53.8858H53.8907ZM55.9121 41.8986C55.9121 41.4828 55.7306 40.7832 54.9407 40.7832C54.2194 40.7832 53.925 41.4338 53.8809 41.8986H55.9121Z" fill="#333333"/>
<path d="M59.7435 39.7708L60.5678 42.4712C60.6561 42.799 60.769 43.2002 60.8377 43.4937H60.872C60.9505 43.2002 61.0437 42.7843 61.1222 42.4712L61.7993 39.7708H63.6392L62.3538 43.3958C61.5638 45.5777 61.0339 46.4583 60.4157 47.0063C59.8171 47.5248 59.1842 47.7058 58.7573 47.7596L58.3943 46.3116C58.6102 46.2773 58.88 46.1795 59.1401 46.018C59.4001 45.881 59.6798 45.612 59.8515 45.3282C59.9104 45.25 59.9398 45.1619 59.9398 45.0836C59.9398 45.0298 59.93 44.9369 59.8613 44.8048L57.8398 39.7756H59.7485L59.7435 39.7708Z" fill="#333333"/>
<path d="M65.2235 45.3966C64.6446 45.3966 64.2324 44.9563 64.2324 44.3594C64.2324 43.7626 64.6494 43.3125 65.248 43.3125C65.8466 43.3125 66.2539 43.7381 66.2539 44.3594C66.2539 44.9807 65.8466 45.3966 65.2382 45.3966H65.2284H65.2235Z" fill="#333333"/>
<path d="M70.082 37.686H71.8091V43.8306H74.8315V45.2689H70.082V37.686Z" fill="#333333"/>
<path d="M77.7893 38.239C77.7893 38.7135 77.4262 39.0951 76.862 39.0951C76.2977 39.0951 75.9591 38.7135 75.969 38.239C75.9591 37.7448 76.3174 37.373 76.8718 37.373C77.4262 37.373 77.7746 37.7448 77.7844 38.239H77.7893ZM76.0181 45.269V39.7702H77.7353V45.269H76.0181Z" fill="#333333"/>
<path d="M80.6106 39.7703L81.3563 42.324C81.4888 42.7887 81.5918 43.2241 81.6703 43.6644H81.7047C81.793 43.2143 81.8862 42.7985 82.0089 42.324L82.7203 39.7703H84.5259L82.4701 45.269H80.7528L78.7461 39.7703H80.6057H80.6106Z" fill="#333333"/>
<path d="M86.4688 43.0676C86.5228 43.7769 87.2244 44.1145 88.0242 44.1145C88.613 44.1145 89.084 44.0362 89.5501 43.8895L89.7758 45.0489C89.2115 45.2739 88.5246 45.3962 87.7789 45.3962C85.9046 45.3962 84.8301 44.3053 84.8301 42.5832C84.8301 41.189 85.6985 39.6479 87.6169 39.6479C89.398 39.6479 90.08 41.0324 90.08 42.3925C90.08 42.686 90.0456 42.9453 90.0211 43.0676H86.4688ZM88.4903 41.8983C88.4903 41.4825 88.3087 40.7829 87.5188 40.7829C86.7976 40.7829 86.5032 41.4336 86.459 41.8983H88.4903Z" fill="#333333"/>
<path d="M93.3879 37.2849H95.1002V40.4257H95.1248C95.4535 39.9511 96.0276 39.6478 96.7979 39.6478C98.1177 39.6478 99.0892 40.7388 99.0745 42.4266C99.0745 44.4079 97.8135 45.3961 96.5477 45.3961C95.9049 45.3961 95.2818 45.1613 94.8893 44.5057H94.8647L94.796 45.2689H93.3438C93.3634 44.9118 93.3879 44.2465 93.3879 43.6252V37.28V37.2849ZM95.1002 42.9305C95.1002 43.043 95.1101 43.1457 95.1346 43.2338C95.2475 43.6937 95.6399 44.041 96.1404 44.041C96.8764 44.041 97.3229 43.4784 97.3229 42.4902C97.3229 41.634 96.9402 40.9589 96.1404 40.9589C95.6792 40.9589 95.2475 41.3063 95.1346 41.8053C95.1101 41.908 95.1002 42.0058 95.1002 42.1233V42.9305Z" fill="#333333"/>
<path d="M101.487 43.0676C101.541 43.7769 102.243 44.1145 103.043 44.1145C103.631 44.1145 104.102 44.0362 104.569 43.8895L104.794 45.0489C104.23 45.2739 103.543 45.3962 102.797 45.3962C100.923 45.3962 99.8535 44.3053 99.8535 42.5832C99.8535 41.189 100.722 39.6479 102.64 39.6479C104.421 39.6479 105.098 41.0324 105.098 42.3925C105.098 42.686 105.064 42.9453 105.045 43.0676H101.492H101.487ZM103.504 41.8983C103.504 41.4825 103.322 40.7829 102.537 40.7829C101.816 40.7829 101.522 41.4336 101.478 41.8983H103.509H103.504Z" fill="#333333"/>
<path d="M108.269 38.2732V39.7702H109.501V41.0275H108.269V43.0186C108.269 43.6839 108.426 43.9872 108.947 43.9872C109.182 43.9872 109.285 43.9774 109.457 43.9432L109.467 45.2396C109.241 45.3277 108.834 45.3962 108.348 45.3962C107.793 45.3962 107.332 45.1956 107.062 44.9119C106.748 44.5841 106.587 44.0557 106.587 43.2828V41.0324H105.855V39.7751H106.587V38.738L108.269 38.2781V38.2732Z" fill="#333333"/>
<path d="M112.636 38.2732V39.7702H113.862V41.0275H112.636V43.0186C112.636 43.6839 112.793 43.9872 113.313 43.9872C113.548 43.9872 113.651 43.9774 113.823 43.9432L113.833 45.2396C113.607 45.3277 113.2 45.3962 112.714 45.3962C112.165 45.3962 111.699 45.1956 111.429 44.9119C111.115 44.5841 110.953 44.0557 110.953 43.2828V41.0324H110.217V39.7751H110.953V38.738L112.636 38.2781V38.2732Z" fill="#333333"/>
<path d="M116.403 43.0676C116.457 43.7769 117.159 44.1145 117.964 44.1145C118.548 44.1145 119.023 44.0362 119.485 43.8895L119.71 45.0489C119.146 45.2739 118.459 45.3962 117.713 45.3962C115.839 45.3962 114.77 44.3053 114.77 42.5832C114.77 41.189 115.638 39.6479 117.556 39.6479C119.337 39.6479 120.015 41.0324 120.015 42.3925C120.015 42.686 119.98 42.9453 119.956 43.0676H116.398H116.403ZM118.425 41.8983C118.425 41.4825 118.243 40.7829 117.453 40.7829C116.732 40.7829 116.438 41.4336 116.389 41.8983H118.42H118.425Z" fill="#333333"/>
<path d="M121.267 41.5804C121.267 40.7683 121.247 40.2448 121.223 39.7703H122.7L122.754 40.7829H122.798C123.077 39.9806 123.754 39.6479 124.284 39.6479C124.441 39.6479 124.52 39.6479 124.647 39.6724V41.2917C124.525 41.2575 124.378 41.2379 124.186 41.2379C123.553 41.2379 123.126 41.5755 123.014 42.1038C122.989 42.2163 122.979 42.3533 122.979 42.4854V45.2739H121.262V41.5852L121.267 41.5804Z" fill="#333333"/>
<path d="M126.419 45.3961C125.845 45.3961 125.428 44.9558 125.428 44.3589C125.428 43.7621 125.845 43.312 126.443 43.312C127.042 43.312 127.449 43.7376 127.449 44.3589C127.449 44.9802 127.042 45.3961 126.434 45.3961H126.424H126.419Z" fill="#333333"/>
<path d="M150.666 13.798C151.618 13.798 152.403 13.3039 152.506 12.6679L153.448 2.06176C153.448 1.01484 152.216 0.153809 150.666 0.153809C149.115 0.153809 147.889 1.01484 147.889 2.06176L148.826 12.6679C148.929 13.3088 149.714 13.798 150.666 13.798Z" fill="#333333"/>
<path d="M144.914 17.115C145.39 16.2931 145.356 15.3684 144.85 14.9575L136.107 8.84231C135.199 8.31885 133.835 8.94995 133.06 10.2855C132.285 11.6211 132.422 13.1132 133.33 13.6366L143.01 18.1325C143.619 18.3576 144.438 17.9271 144.914 17.1052V17.115Z" fill="#333333"/>
<path d="M156.419 17.11C156.895 17.9319 157.719 18.3624 158.323 18.1374L168.003 13.6415C168.916 13.118 169.044 11.6259 168.273 10.2904C167.498 8.95482 166.129 8.32374 165.226 8.8472L156.483 14.9624C155.983 15.3733 155.948 16.298 156.419 17.1198V17.11Z" fill="#333333"/>
<path d="M150.666 27.0459C151.618 27.0459 152.403 27.5351 152.506 28.176L153.448 38.7822C153.448 39.834 152.216 40.6901 150.666 40.6901C149.115 40.6901 147.889 39.8291 147.889 38.7822L148.826 28.176C148.929 27.54 149.714 27.0459 150.666 27.0459Z" fill="#333333"/>
<path d="M156.419 23.7339C156.895 22.912 157.719 22.4815 158.323 22.7114L168.003 27.2024C168.916 27.7259 169.044 29.2229 168.273 30.5585C167.498 31.8891 166.129 32.5251 165.226 32.0016L156.483 25.8913C155.983 25.4755 155.948 24.5509 156.419 23.7339Z" fill="#333333"/>
<path d="M144.914 23.7343C145.39 24.5562 145.356 25.4808 144.85 25.8918L136.107 32.0021C135.199 32.5255 133.835 31.8895 133.06 30.5589C132.285 29.2233 132.422 27.7263 133.33 27.2029L143.01 22.7119C143.619 22.4868 144.438 22.9124 144.914 23.7343Z" fill="#333333"/>
<path d="M100.305 21.6401C100.305 17.6334 98.5874 14.1111 92.7929 14.1111C89.8147 14.1111 87.4547 14.9428 86.1643 15.6864L87.1063 18.9054C88.2839 18.1667 90.163 17.5503 91.9392 17.5503C94.8782 17.5405 95.3639 19.2087 95.3639 20.2801V20.5345C88.9511 20.5247 84.8984 22.736 84.8984 27.2465C84.8984 30.0008 86.9641 32.579 90.5507 32.579C92.7586 32.579 94.6034 31.7033 95.7073 30.2943H95.8153C95.8153 30.2943 96.5463 33.347 100.584 32.1827C100.373 30.9107 100.305 29.5556 100.305 27.9216V21.6352V21.6401ZM95.516 25.8718C95.516 26.1996 95.4866 26.5323 95.3983 26.8307C95.0254 28.0537 93.7546 29.0909 92.1649 29.0909C90.8401 29.0909 89.7852 28.3424 89.7852 26.7524C89.7852 24.3259 92.4642 23.6557 95.516 23.6704V25.8767V25.8718Z" fill="#333333"/>
<path d="M0.42489 8.66139C0.42489 8.66139 4.61501 25.779 5.28229 28.5529C6.06242 31.7964 7.47055 32.9901 11.5233 32.1829L14.1384 21.5718C14.8008 18.9349 15.2473 17.0563 15.6741 14.3754H15.7477C16.047 17.0808 16.4739 18.9447 17.0185 21.5816C17.0185 21.5816 18.0832 26.4003 18.6278 28.9296C19.1724 31.4588 20.6935 33.0537 24.6677 32.1829L30.8989 8.65649H25.8648L23.7355 18.8273C23.1614 21.787 22.6462 24.101 22.2439 26.8113H22.1703C21.8072 24.1304 21.346 21.9093 20.7621 19.023L18.5444 8.65649H13.2994L10.9296 18.7588C10.2574 21.8311 9.62937 24.3065 9.23195 26.9238H9.1584C8.75117 24.4582 8.20654 21.3419 7.61286 18.3723C7.61286 18.3723 6.2047 11.1466 5.70915 8.65161H0.410156L0.42489 8.66139Z" fill="#333333"/>
<path d="M45.1953 21.6401C45.1953 17.6334 43.4781 14.1111 37.6836 14.1111C34.7054 14.1111 32.3405 14.9428 31.055 15.6864L31.997 18.9054C33.1745 18.1667 35.0537 17.5503 36.8298 17.5503C39.7737 17.5405 40.2546 19.2087 40.2546 20.2801V20.5345C33.8418 20.5247 29.7891 22.736 29.7891 27.2465C29.7891 30.0008 31.8498 32.579 35.4364 32.579C37.6443 32.579 39.4891 31.7033 40.598 30.2943H40.7059C40.7059 30.2943 41.437 33.347 45.475 32.1827C45.2641 30.9107 45.1953 29.5556 45.1953 27.9216V21.6352V21.6401ZM40.4115 25.8718C40.4115 26.1996 40.3821 26.5323 40.2938 26.8307C39.9209 28.0537 38.6502 29.0909 37.0605 29.0909C35.7357 29.0909 34.6808 28.3424 34.6808 26.7524C34.6808 24.3259 37.3597 23.6557 40.4115 23.6704V25.8767V25.8718Z" fill="#333333"/>
<path d="M53.1832 27.1929V8.66138H48.3945V32.1877H53.1832V27.1929Z" fill="#333333"/>
<path d="M115.869 8.66138V26.0139C115.869 28.4061 116.321 30.0841 117.287 31.1066C118.131 32.0019 119.52 32.584 121.188 32.584C122.606 32.584 123.999 32.3149 124.657 32.0703L124.593 28.3376C124.102 28.455 123.543 28.5529 122.772 28.5529C121.139 28.5529 120.594 27.5108 120.594 25.3632V18.7245H124.765V14.2238H120.594V8.66138H115.869Z" fill="#333333"/>
<path d="M103.5 14.5122V32.1827H108.441V23.1322C108.441 22.643 108.47 22.2174 108.549 21.826C108.917 19.9328 110.369 18.7195 112.454 18.7195C113.028 18.7195 113.436 18.7831 113.882 18.8467V14.2187C113.509 14.1453 113.254 14.1111 112.793 14.1111C110.948 14.1111 108.848 15.2999 107.97 17.8438H107.837V14.5122H103.5Z" fill="#333333"/>
<path d="M56.5391 14.5125V32.1829H61.3572V21.8165C61.3572 21.3321 61.4112 20.8185 61.5829 20.3684C61.9803 19.3264 62.9567 18.1033 64.512 18.1033C66.455 18.1033 67.3627 19.7422 67.3627 22.1051V32.1781H72.1759V21.6893C72.1759 21.2245 72.2397 20.6668 72.3771 20.2559C72.7745 19.0671 73.8245 18.1033 75.267 18.1033C77.2394 18.1033 78.1814 19.7129 78.1814 22.4965V32.1781H82.9947V21.7676C82.9947 16.2786 80.198 14.1064 77.0431 14.1064C75.6448 14.1064 74.5409 14.4538 73.5448 15.0653C72.7058 15.579 71.9551 16.3079 71.2977 17.2668H71.229C70.4685 15.3637 68.6776 14.1064 66.3421 14.1064C63.3443 14.1064 61.995 15.623 61.1805 16.9048H61.1119V14.5027H56.5391V14.5125Z" fill="#333333"/>
<path d="M170.051 31.1113C170.522 31.1113 170.89 31.4783 170.89 31.9332C170.89 32.3882 170.522 32.76 170.046 32.76C169.57 32.76 169.197 32.398 169.197 31.9332C169.197 31.4685 169.575 31.1113 170.046 31.1113H170.051ZM170.041 31.2777C169.678 31.2777 169.408 31.5712 169.408 31.9332C169.408 32.2952 169.678 32.5888 170.051 32.5888C170.414 32.5937 170.679 32.3001 170.679 31.9332C170.679 31.5663 170.414 31.2777 170.046 31.2777H170.041ZM169.914 32.3588H169.722V31.5418C169.796 31.5272 169.904 31.5125 170.036 31.5125C170.193 31.5125 170.262 31.537 170.321 31.5761C170.365 31.6103 170.399 31.6739 170.399 31.7522C170.399 31.8452 170.331 31.9185 170.228 31.9479V31.9577C170.306 31.9821 170.355 32.0457 170.38 32.1583C170.404 32.2855 170.419 32.3344 170.439 32.3588H170.233C170.208 32.3295 170.193 32.261 170.169 32.1632C170.154 32.0751 170.105 32.0311 169.997 32.0311H169.909V32.3588H169.914ZM169.914 31.899H170.002C170.11 31.899 170.193 31.8647 170.193 31.7767C170.193 31.7033 170.139 31.6495 170.017 31.6495C169.968 31.6495 169.933 31.6495 169.909 31.6593V31.8941L169.914 31.899Z" fill="#333333"/>
</svg>
