<?xml version="1.0" encoding="utf-8"?>
<!-- Generator: Adobe Illustrator 27.8.1, SVG Export Plug-In . SVG Version: 6.00 Build 0)  -->
<svg version="1.1" id="Layer_1" xmlns="http://www.w3.org/2000/svg" xmlns:xlink="http://www.w3.org/1999/xlink" x="0px" y="0px"
	 viewBox="0 0 200 32.1" style="enable-background:new 0 0 200 32.1;" xml:space="preserve">
<style type="text/css">
	.st0{fill:#FF5100;}
	.st1{fill:#FFFFFF;}
	.st2{fill-rule:evenodd;clip-rule:evenodd;fill:#010101;}
	.st3{opacity:0.3;fill-rule:evenodd;clip-rule:evenodd;fill:#010101;}
	.st4{fill-rule:evenodd;clip-rule:evenodd;fill:#A4CB39;}
	.st5{opacity:0.2;fill-rule:evenodd;clip-rule:evenodd;fill:#010101;}
	.st6{fill-rule:evenodd;clip-rule:evenodd;fill:#F18021;}
	.st7{opacity:0.2;fill-rule:evenodd;clip-rule:evenodd;fill:#FFFFFF;}
</style>
<g>
	<g>
		<rect x="52.95" y="19.25" class="st0" width="147.05" height="1.23"/>
		<path class="st1" d="M198.25,25.77h-5.61v4.89h5.61v-1.72h-2.94v-1.31H200v2.66c0,0.71-0.13,1.19-0.39,1.44
			c-0.26,0.26-0.77,0.38-1.52,0.38h-5.33c-0.75,0-1.26-0.13-1.52-0.38c-0.26-0.26-0.39-0.74-0.39-1.44v-4.07
			c0-0.7,0.13-1.18,0.39-1.44c0.26-0.26,0.77-0.39,1.52-0.39h5.33c0.74,0,1.24,0.13,1.51,0.38c0.27,0.25,0.4,0.71,0.4,1.38v0.17
			l-1.74,0.31V25.77z M168.26,32.1v-7.72h1.23l5.44,4.55c0.18,0.15,0.35,0.29,0.49,0.43c0.14,0.14,0.27,0.27,0.39,0.41
			c-0.03-0.43-0.05-0.74-0.06-0.92c-0.01-0.18-0.02-0.32-0.02-0.42v-4.06h1.61v7.72h-1.23l-5.67-4.77
			c-0.14-0.12-0.26-0.23-0.36-0.33c-0.1-0.1-0.2-0.2-0.28-0.3c0.02,0.24,0.04,0.46,0.06,0.68c0.01,0.21,0.02,0.39,0.02,0.55v4.17
			H168.26z M152.8,24.38h1.8v7.72h-1.8V24.38z M137.32,25.77v6.34h-1.8v-6.34h-3.54v-1.38h8.9v1.38H137.32z M110.98,32.1v-7.72h1.23
			l5.44,4.55c0.18,0.15,0.35,0.29,0.49,0.43c0.14,0.14,0.27,0.27,0.39,0.41c-0.03-0.43-0.05-0.74-0.06-0.92
			c-0.01-0.18-0.02-0.32-0.02-0.42v-4.06h1.61v7.72h-1.23l-5.67-4.77c-0.14-0.12-0.26-0.23-0.36-0.33c-0.1-0.1-0.2-0.2-0.28-0.3
			c0.02,0.24,0.04,0.46,0.06,0.68c0.01,0.21,0.02,0.39,0.02,0.55v4.17H110.98z M95.52,24.38h1.8v7.72h-1.8V24.38z M73.8,32.1v-7.72
			h6.6c0.61,0,1.06,0.12,1.33,0.35c0.28,0.24,0.41,0.62,0.41,1.14v1.81c0,0.52-0.14,0.9-0.41,1.14c-0.28,0.24-0.72,0.36-1.33,0.36
			h-1.01l3.56,2.91h-2.58l-3.11-2.91h-1.7v2.91H73.8z M79.6,25.72h-4.04v2.15h4.04c0.31,0,0.52-0.05,0.64-0.14
			c0.11-0.09,0.17-0.25,0.17-0.48v-0.93c0-0.22-0.06-0.38-0.17-0.47C80.13,25.77,79.92,25.72,79.6,25.72 M52.95,32.1v-7.72h6.6
			c0.61,0,1.06,0.12,1.33,0.35c0.27,0.24,0.41,0.62,0.41,1.14v1.72c0,0.52-0.14,0.9-0.41,1.14c-0.28,0.24-0.72,0.35-1.33,0.35h-4.84
			v3.01H52.95z M58.76,25.72h-4.04v2.05h4.04c0.31,0,0.52-0.05,0.64-0.14c0.11-0.09,0.17-0.25,0.17-0.48v-0.83
			c0-0.22-0.06-0.38-0.17-0.47C59.28,25.77,59.07,25.72,58.76,25.72"/>
		<g>
			<path class="st1" d="M100.21,3.01c0-0.64-0.21-1.28-0.63-1.9C99.08,0.37,98.41,0,97.59,0H77.9v15.07h19.72
				c0.58,0,1.13-0.24,1.65-0.72c0.63-0.58,0.94-1.35,0.94-2.29H80.52V9.04h19.69V6.03H80.52V3.01H100.21z"/>
			<path class="st1" d="M72.65,0H52.96v15.07h19.69c0.56,0,1.1-0.24,1.63-0.72c0.63-0.58,0.95-1.35,0.95-2.29V2.98
				c0-0.66-0.2-1.3-0.6-1.9C74.13,0.36,73.47,0,72.65,0z M72.65,12.05H55.58V2.98h17.06V12.05z"/>
			<path class="st1" d="M105.46,0h-2.62v12.05c0,0.68,0.21,1.33,0.63,1.93c0.49,0.72,1.15,1.08,1.99,1.08h17.06
				c0.56,0,1.11-0.24,1.65-0.72c0.65-0.58,0.97-1.35,0.97-2.29h-19.69V0z"/>
			<path class="st1" d="M175.68,15.07h-3.22l-4.13-6.15h-8.71l-4.13,6.15h-3.22c0,0,3.77-5.83,4.9-7.53c-1.13-1.7-4.9-7.53-4.9-7.53
				h3.22l4.13,6.15h8.71L172.47,0h3.22c0,0-3.77,5.83-4.9,7.53L175.68,15.07z"/>
			<path class="st1" d="M147.47,0v12.05h-17.07V0c-0.61,0-1.17,0.23-1.68,0.69c-0.63,0.56-0.94,1.34-0.94,2.32v9.04
				c0,0.68,0.21,1.33,0.63,1.93c0.49,0.72,1.15,1.08,1.99,1.08h17.07c0.56,0,1.11-0.24,1.65-0.72c0.65-0.58,0.97-1.35,0.97-2.29
				V3.01c0-0.68-0.21-1.33-0.63-1.93C148.98,0.36,148.31,0,147.47,0z"/>
			<path class="st1" d="M180.29,3.01h19.69c0-0.64-0.21-1.28-0.63-1.9C198.84,0.37,198.17,0,197.35,0h-19.67v15.07h19.7
				c0.58,0,1.13-0.24,1.65-0.72c0.63-0.58,0.95-1.35,0.95-2.29h-19.69V9.04h19.69V6.03h-19.69V3.01z"/>
		</g>
	</g>
	<g>
		<path class="st2" d="M31.32,5.72c-1.17-0.44-2.64-0.69-4.4-0.75c-1.7-0.06-3.55,0.07-5.54,0.37c-2,0.31-3.97,0.77-5.92,1.39
			C13.43,7.36,11.58,8.12,9.92,9c-2.25,1.21-4.05,2.45-5.4,3.73c-1.29,1.21-2.09,2.38-2.39,3.49c-0.29,1.1-0.07,2.06,0.67,2.87
			c0.76,0.84,2.01,1.47,3.74,1.88c-1.02-0.47-1.81-1-2.34-1.6c-0.6-0.68-0.86-1.42-0.8-2.22c0.15-1.9,2.14-4.05,5.94-6.44
			c3.14-1.86,6.45-3.21,9.92-4.05C23.04,5.74,27.07,5.43,31.32,5.72z"/>
		<path class="st3" d="M31.32,5.72c-5.52-1.21-13.11,0.1-19.07,2.75c-8.3,3.7-13.74,9.44-5.72,12.5c-1.02-0.47-1.81-1-2.34-1.6
			c-0.6-0.68-0.86-1.42-0.8-2.22c0.15-1.9,2.14-4.05,5.94-6.44c3.14-1.86,6.45-3.21,9.92-4.05C23.04,5.74,27.07,5.43,31.32,5.72z"/>
		<path class="st2" d="M9.84,31.95c2.71-0.08,5.12-0.22,7.23-0.4c5.36-0.47,10.1-1.39,14.22-2.75c2.17-0.65,4.2-1.52,6.07-2.61
			c1.88-1.1,3.48-2.36,4.81-3.77c1.38-1.46,2.38-3,3-4.63c0.66-1.71,0.88-3.43,0.64-5.17c-0.45,3.68-2.07,6.82-4.87,9.41
			c-2.47,2.28-5.77,4.07-9.91,5.36c-4.34,1.3-8.89,2.19-13.66,2.68c-4.02,0.42-8.47,0.57-13.36,0.45c-0.15,0.19-0.39,0.45-0.7,0.79
			c-0.31,0.34-0.55,0.61-0.71,0.8C6.15,32.05,8.56,32,9.84,31.95z"/>
		<path class="st3" d="M45.81,12.62c-0.45,3.68-2.07,6.82-4.87,9.41c-2.47,2.28-5.77,4.07-9.91,5.36c-4.34,1.3-8.89,2.19-13.66,2.68
			c-4.02,0.42-8.47,0.57-13.36,0.45c0.02,0.06,0.13,0.77,0.09,0.8C16.04,31.72,45.44,30.2,45.81,12.62z"/>
		<path class="st2" d="M39.16,20.01c1.13-1.02,2.05-2.03,2.77-3.02c0.79-1.07,1.39-2.19,1.81-3.36c0.71-2,0.95-4.36,0.7-7.06
			c-0.12-0.83-0.29-1.59-0.52-2.26c-0.21,3.16-1.03,5.92-2.45,8.29c-1.39,2.32-3.36,4.31-5.91,6c-2.55,1.68-5.56,2.98-9.04,3.89
			c-3.54,0.92-7.42,1.41-11.61,1.45l3.64-7.92l13.18-3.75c-1.77,0.05-4.44,0.19-8,0.4c-3.58,0.22-6.25,0.36-8,0.41
			c-1.16,1.71-2.92,4.26-5.26,7.67c-2.29,3.34-4.04,5.9-5.25,7.67c3.51-0.04,6.62-0.18,9.35-0.4c3.26-0.27,6.23-0.69,8.91-1.26
			C29.71,25.43,34.94,23.18,39.16,20.01L39.16,20.01z M39.99,3.21c1.12,1.06,1.48,2.35,1.08,3.86c-0.45,1.71-1.87,3.64-4.28,5.78
			c1.41-1.75,2.25-3.31,2.51-4.67c0.27-1.32-0.02-2.42-0.84-3.32c-0.8-0.87-2.11-1.52-3.92-1.95c-1.79-0.41-4.03-0.6-6.71-0.56
			c-1.8,0.03-4.03,0.36-6.71,1.02C18.58,4,15.92,4.83,13.15,5.88c-2.79,1.06-5.32,2.2-7.59,3.41C3.14,10.58,1.28,11.8,0,12.97
			c1.39-1.49,3.1-2.93,5.12-4.3c2.1-1.44,4.41-2.72,6.91-3.84c2.67-1.19,5.44-2.14,8.31-2.85c3.09-0.77,6.19-1.23,9.29-1.38
			c2.1-0.08,4.06,0.09,5.88,0.52C37.5,1.57,39,2.27,39.99,3.21z"/>
		<path class="st3" d="M43.92,4.29c-0.21,3.16-1.03,5.92-2.45,8.29c-1.39,2.32-3.36,4.31-5.91,6c-2.55,1.68-5.56,2.98-9.04,3.89
			c-3.54,0.93-7.42,1.41-11.61,1.45L18.55,16l13.18-3.75c-0.05,0.01-14.88,2.37-14.86,2.42c0.02,0.02-7.04,11.02-7.1,11.24
			C17.42,27.09,44.58,25.21,43.92,4.29L43.92,4.29z M0,12.96C14.31-1.24,51.47-3.14,36.8,12.84c1.41-1.75,2.25-3.31,2.51-4.67
			c0.27-1.32-0.02-2.42-0.84-3.32c-0.8-0.87-2.11-1.52-3.92-1.95c-1.79-0.41-4.03-0.6-6.71-0.56c-1.8,0.03-4.03,0.36-6.71,1.02
			c-2.55,0.63-5.21,1.46-7.98,2.51c-2.79,1.06-5.32,2.2-7.59,3.41C3.14,10.57,1.29,11.8,0,12.96z"/>
		<path class="st3" d="M43.92,4.29c-0.21,3.16-1.03,5.92-2.45,8.29c-1.39,2.32-3.36,4.31-5.91,6c-2.55,1.68-5.56,2.98-9.04,3.89
			c-3.54,0.93-7.42,1.41-11.61,1.45L18.55,16c0.07,0.01-1.69-1.34-1.69-1.33c0.02,0.02-7.04,11.02-7.1,11.24
			C17.42,27.09,44.58,25.21,43.92,4.29L43.92,4.29z M0,12.96C14.43-0.95,51.8-3.29,36.8,12.84c1.41-1.75,2.25-3.31,2.51-4.67
			c0.27-1.32-0.02-2.42-0.84-3.32c-0.8-0.87-2.11-1.52-3.92-1.95c-1.79-0.41-4.03-0.6-6.71-0.56c-1.8,0.03-4.03,0.36-6.71,1.02
			c-2.55,0.63-5.21,1.46-7.98,2.51c-2.79,1.06-5.32,2.2-7.59,3.41c-2.12,1.13-3.81,2.21-5.06,3.25C0.32,12.68,0.16,12.82,0,12.96z"
			/>
		<path class="st3" d="M43.92,4.29c-0.21,3.16-1.03,5.92-2.45,8.29c-1.39,2.32-3.36,4.31-5.91,6c-2.55,1.68-5.56,2.98-9.04,3.89
			c-3.54,0.93-7.42,1.41-11.61,1.45c-0.01,0-5.09,1.95-5.14,2C17.42,27.09,44.58,25.21,43.92,4.29z"/>
		<path class="st4" d="M31.32,5.1c-1.17-0.44-2.64-0.69-4.4-0.74c-1.7-0.06-3.55,0.07-5.54,0.36c-2,0.31-3.97,0.76-5.92,1.37
			c-2.03,0.63-3.88,1.39-5.54,2.26c-2.25,1.2-4.05,2.43-5.4,3.69c-1.29,1.2-2.09,2.35-2.39,3.45c-0.29,1.09-0.07,2.04,0.67,2.85
			c0.76,0.83,2.01,1.45,3.74,1.86c-1.02-0.47-1.81-0.99-2.34-1.58c-0.6-0.68-0.86-1.41-0.8-2.2c0.15-1.88,2.14-4.01,5.94-6.38
			c3.14-1.84,6.45-3.18,9.92-4.01C23.04,5.12,27.07,4.82,31.32,5.1z"/>
		<path class="st5" d="M31.32,5.1C25.8,3.9,18.21,5.19,12.25,7.82c-8.3,3.66-13.74,9.35-5.72,12.38c-1.02-0.47-1.81-0.99-2.34-1.58
			c-0.6-0.68-0.86-1.41-0.8-2.2c0.15-1.88,2.14-4.01,5.94-6.38c3.14-1.84,6.45-3.18,9.92-4.01C23.04,5.12,27.07,4.82,31.32,5.1z"/>
		<path class="st4" d="M9.84,31.07c2.71-0.08,5.12-0.22,7.23-0.4c5.36-0.47,10.1-1.37,14.22-2.73c2.17-0.65,4.2-1.5,6.07-2.59
			c1.88-1.09,3.48-2.33,4.81-3.73c1.38-1.44,2.38-2.97,3-4.58c0.66-1.69,0.88-3.4,0.64-5.12c-0.45,3.65-2.07,6.76-4.87,9.31
			c-2.47,2.26-5.77,4.03-9.91,5.31c-4.34,1.28-8.89,2.17-13.66,2.66c-4.02,0.41-8.47,0.56-13.36,0.45c-0.15,0.19-0.39,0.45-0.7,0.78
			c-0.31,0.34-0.55,0.6-0.71,0.79C6.15,31.17,8.56,31.12,9.84,31.07z"/>
		<path class="st5" d="M45.81,11.93c-0.45,3.65-2.07,6.76-4.87,9.31c-2.47,2.26-5.77,4.03-9.91,5.31
			c-4.34,1.28-8.89,2.17-13.66,2.66c-4.02,0.41-8.47,0.56-13.36,0.45c0.02,0.06,0.13,0.76,0.09,0.79
			C16.04,30.84,45.44,29.34,45.81,11.93z"/>
		<path class="st6" d="M39.16,19.25c1.13-1.01,2.05-2.01,2.77-2.99c0.79-1.06,1.39-2.17,1.81-3.33c0.71-1.98,0.95-4.31,0.7-7
			c-0.12-0.82-0.29-1.57-0.52-2.24c-0.21,3.13-1.03,5.86-2.45,8.21c-1.39,2.29-3.36,4.27-5.91,5.94c-2.55,1.66-5.56,2.95-9.04,3.85
			c-3.54,0.92-7.42,1.39-11.61,1.43l3.64-7.84l13.18-3.72c-1.77,0.05-4.44,0.19-8,0.4c-3.58,0.22-6.25,0.35-8,0.4
			c-1.16,1.69-2.92,4.22-5.26,7.6c-2.29,3.31-4.04,5.84-5.25,7.59c3.51-0.04,6.62-0.18,9.35-0.4c3.26-0.27,6.23-0.69,8.91-1.25
			C29.71,24.61,34.94,22.39,39.16,19.25L39.16,19.25z M39.99,2.61c1.12,1.05,1.48,2.33,1.08,3.82c-0.45,1.69-1.87,3.6-4.28,5.72
			c1.41-1.73,2.25-3.28,2.51-4.63c0.27-1.31-0.02-2.4-0.84-3.29c-0.8-0.86-2.11-1.51-3.92-1.93c-1.79-0.41-4.03-0.59-6.71-0.55
			c-1.8,0.03-4.03,0.36-6.71,1.01c-2.55,0.62-5.21,1.45-7.98,2.49c-2.79,1.05-5.32,2.17-7.59,3.37C3.14,9.91,1.28,11.12,0,12.28
			c1.39-1.48,3.1-2.9,5.12-4.26c2.1-1.42,4.41-2.69,6.91-3.8c2.67-1.18,5.44-2.12,8.31-2.83c3.09-0.76,6.19-1.22,9.29-1.37
			c2.1-0.08,4.06,0.09,5.88,0.51C37.5,0.99,39,1.68,39.99,2.61z"/>
		<path class="st7" d="M43.92,3.68c-0.21,3.13-1.03,5.86-2.45,8.21c-1.39,2.29-3.36,4.27-5.91,5.94c-2.55,1.66-5.56,2.95-9.04,3.85
			c-3.54,0.92-7.42,1.39-11.61,1.43l3.64-7.84l13.18-3.72c-0.05,0.01-14.88,2.34-14.86,2.4c0.02,0.02-7.04,10.92-7.1,11.13
			C17.42,26.26,44.58,24.4,43.92,3.68L43.92,3.68z M0,12.27C14.31-1.8,51.47-3.68,36.8,12.15c1.41-1.73,2.25-3.28,2.51-4.63
			c0.27-1.3-0.02-2.4-0.84-3.29c-0.8-0.86-2.11-1.51-3.92-1.93c-1.79-0.41-4.03-0.59-6.71-0.55c-1.8,0.03-4.03,0.36-6.71,1.01
			c-2.55,0.62-5.21,1.45-7.98,2.49C10.36,6.3,7.83,7.43,5.55,8.63C3.14,9.9,1.29,11.11,0,12.27z"/>
		<path class="st7" d="M43.92,3.68c-0.21,3.13-1.03,5.86-2.45,8.21c-1.39,2.29-3.36,4.27-5.91,5.94c-2.55,1.66-5.56,2.95-9.04,3.85
			c-3.54,0.92-7.42,1.39-11.61,1.43c-0.01,0-5.09,1.93-5.14,1.98C17.42,26.26,44.58,24.4,43.92,3.68z"/>
	</g>
</g>
</svg>
